<svg width="100" height="100" viewBox="0 0 100 100" fill="none" xmlns="http://www.w3.org/2000/svg">
<mask id="mask0" mask-type="alpha" maskUnits="userSpaceOnUse" x="0" y="0" width="100" height="100">
<path d="M50 100C77.6142 100 100 77.6142 100 50C100 22.3858 77.6142 0 50 0C22.3858 0 0 22.3858 0 50C0 77.6142 22.3858 100 50 100Z" fill="white"/>
</mask>
<g mask="url(#mask0)">
<path d="M50 100C77.6142 100 100 77.6142 100 50C100 22.3858 77.6142 0 50 0C22.3858 0 0 22.3858 0 50C0 77.6142 22.3858 100 50 100Z" fill="url(#paint0_linear)"/>
<path d="M-8.5 26L94.6 60.6C94.9 60.7 94.8 61.1 94.5 61.1C92.9 60.7 94.7 62 92.6 61.4C68 55.2 9.3 39.4 9.2 39.5C5.1 41.2 87 67.7 87 67.7L84.4 70.7L-8.5 45.1V26Z" fill="url(#paint1_linear)"/>
<path d="M28.25 30.75H129.45V114.15H28.25V30.75Z" fill="url(#paint2_linear)"/>
<path d="M129.05 81.25H28.25L26.05 78.65H131.25L129.05 81.25Z" fill="#CFCFD5"/>
<path d="M60.4501 30.75H64.3501V76.05H60.4501V30.75Z" fill="#FFCAA0"/>
<path d="M92.35 30.75H109.75V76.05H92.35V30.75Z" fill="url(#paint3_linear)"/>
<path d="M26.05 74.75H131.15V78.65H26.05V74.75Z" fill="url(#paint4_linear)"/>
<path d="M131.25 74.75H26.05L28.25 72.05H129.05L131.25 74.75Z" fill="#F3F3F5"/>
<path opacity="0.3" d="M35.55 67.95L38.75 72.05H60.4501L55.05 64.85L35.55 67.95Z" fill="#A51700"/>
<path d="M35.55 64.85H55V68.15H35.55V64.85Z" fill="url(#paint5_linear)"/>
<path d="M86 65H71.85V42.25C76.55 39.85 81.3 39.6 86 42V65Z" fill="url(#paint6_linear)"/>
<path d="M73.15 43.45C77.15 41.35 81.7 41 86 42.5V41.65C81.3 39.25 75.75 39.25 71.05 41.65V65H73.15C73.05 58 73.15 50.55 73.15 43.45Z" fill="#E3733D"/>
<path d="M38.85 86.55L53.25 86.45V103.65H38.85V86.55Z" fill="url(#paint7_linear)"/>
<path d="M95.25 114.15H65.05V89.35C74.55 83.85 85.75 83.85 95.25 89.35V114.15Z" fill="#CFCFD5"/>
<path d="M130.75 22.55H109.95V14.05C109.95 11.75 107.95 9.84998 105.55 9.84998H49.75C47.35 9.84998 45.35 11.75 45.35 14.05V22.55H25.65V25.75H26.75V28.95H129.65V25.75H130.75V22.55Z" fill="url(#paint8_linear)"/>
<path d="M54.6 14V18.1H58.8V14H61.2V24.5H58.8V20.2H54.6V24.5H52V14H54.6ZM73.8 19.1C73.8 22.5 71.7 24.5 68.8 24.5C65.7 24.5 64 22.2 64 19.3C64 16.2 66 14 69 14C72.1 14 73.8 16.4 73.8 19.1ZM66.3 19.3C66.3 21.3 67.4 22.7 68.9 22.7C70.4 22.7 71.5 21.2 71.5 19.2C71.5 17.4 70.5 15.8 68.9 15.8C67.3 15.8 66.3 17.3 66.3 19.3ZM78.7 16H76V14H83.9V16H81.1V24.5H78.7V16ZM93.2 20H89.3V22.6H93.6V24.5H87V14H93.4V16H89.3V18.2H93.2V20ZM94.65 14.25H96.95V22.85H101.25V24.75H94.65V14.25Z" fill="white"/>
<path opacity="0.3" d="M129.45 33.95H28.25V31.05H129.45V33.95Z" fill="#661802"/>
<path d="M128.05 31.45H28.25L26.75 28.95H128.85L128.05 31.45Z" fill="#0052A3"/>
<path d="M59.15 74.75H97.25V89.25H59.15V74.75Z" fill="url(#paint9_linear)"/>
<path d="M59.15 74.75H65.05V89.25H59.15V74.75Z" fill="url(#paint10_linear)"/>
<path d="M69.65 74.75H75.55V89.25H69.65V74.75Z" fill="url(#paint11_linear)"/>
<path d="M80.85 74.75H86.75V89.25H80.85V74.75Z" fill="url(#paint12_linear)"/>
<path d="M93.35 74.75H99.25V89.25H93.35V74.75Z" fill="url(#paint13_linear)"/>
<path opacity="0.3" d="M59.15 85.85H97.25V89.15H59.15V85.85Z" fill="#661802"/>
<path d="M71 53H86.1V55.6H71V53Z" fill="url(#paint14_linear)"/>
<path d="M53 65H38.85V42.25C43.55 39.85 48.3 39.6 53 42V65Z" fill="url(#paint15_linear)"/>
<path d="M40.1501 43.45C44.1501 41.35 48.7 41 53 42.5V41.65C48.3 39.25 42.75 39.25 38.05 41.65V65H40.1501C40.0501 58 40.1501 50.55 40.1501 43.45Z" fill="#E3733D"/>
<path d="M38 53H53.1V55.6H38V53Z" fill="url(#paint16_linear)"/>
<path d="M53.25 85.85H38.15V103.65H40.25V88.15H53.25V85.85Z" fill="#D34F26"/>
</g>
<defs>
<linearGradient id="paint0_linear" x1="29.536" y1="9.687" x2="81.748" y2="112.776" gradientUnits="userSpaceOnUse">
<stop stop-color="#BFE8FE"/>
<stop offset="0.4346" stop-color="#1D8AE4"/>
<stop offset="1" stop-color="#033A82"/>
</linearGradient>
<linearGradient id="paint1_linear" x1="47.8925" y1="21.8693" x2="46.1935" y2="62.6858" gradientUnits="userSpaceOnUse">
<stop offset="0.00185" stop-color="white"/>
<stop offset="1" stop-color="white" stop-opacity="0"/>
</linearGradient>
<linearGradient id="paint2_linear" x1="62.2633" y1="50.9128" x2="94.5959" y2="112.745" gradientUnits="userSpaceOnUse">
<stop stop-color="#EFAF67"/>
<stop offset="1" stop-color="#CC441F"/>
</linearGradient>
<linearGradient id="paint3_linear" x1="92.3343" y1="53.371" x2="109.712" y2="53.371" gradientUnits="userSpaceOnUse">
<stop stop-color="#E3733D"/>
<stop offset="1" stop-color="#E3703B"/>
</linearGradient>
<linearGradient id="paint4_linear" x1="26.0837" y1="76.6986" x2="131.182" y2="76.6986" gradientUnits="userSpaceOnUse">
<stop stop-color="#E6E6E9"/>
<stop offset="1" stop-color="#DBDBDF"/>
</linearGradient>
<linearGradient id="paint5_linear" x1="36.7464" y1="66.5116" x2="54.1125" y2="66.5116" gradientUnits="userSpaceOnUse">
<stop stop-color="#E3703B"/>
<stop offset="1" stop-color="#EFAF67"/>
</linearGradient>
<linearGradient id="paint6_linear" x1="91.6399" y1="69.5515" x2="69.2724" y2="60.1979" gradientUnits="userSpaceOnUse">
<stop stop-color="#BFE8FE"/>
<stop offset="0.5134" stop-color="#1D8AE4"/>
<stop offset="0.9994" stop-color="#0052A3"/>
</linearGradient>
<linearGradient id="paint7_linear" x1="57.0046" y1="110.796" x2="40.3527" y2="94.0182" gradientUnits="userSpaceOnUse">
<stop stop-color="#BFE8FE"/>
<stop offset="0.4631" stop-color="#1D8AE4"/>
<stop offset="1" stop-color="#0052A3"/>
</linearGradient>
<linearGradient id="paint8_linear" x1="63.0993" y1="11.5199" x2="64.0174" y2="36.8324" gradientUnits="userSpaceOnUse">
<stop stop-color="#42A5F5"/>
<stop offset="1" stop-color="#0C74D5"/>
</linearGradient>
<linearGradient id="paint9_linear" x1="78.205" y1="89.4581" x2="78.205" y2="72.2192" gradientUnits="userSpaceOnUse">
<stop stop-color="#E6E6E9"/>
<stop offset="1" stop-color="#DBDBDF"/>
</linearGradient>
<linearGradient id="paint10_linear" x1="62.1154" y1="74.9962" x2="62.1154" y2="88.9571" gradientUnits="userSpaceOnUse">
<stop stop-color="#F2A25D"/>
<stop offset="1" stop-color="#CC441F"/>
</linearGradient>
<linearGradient id="paint11_linear" x1="72.6284" y1="74.9962" x2="72.6284" y2="88.9571" gradientUnits="userSpaceOnUse">
<stop stop-color="#F2A25D"/>
<stop offset="1" stop-color="#CC441F"/>
</linearGradient>
<linearGradient id="paint12_linear" x1="83.797" y1="74.9962" x2="83.797" y2="88.9571" gradientUnits="userSpaceOnUse">
<stop stop-color="#F2A25D"/>
<stop offset="1" stop-color="#CC441F"/>
</linearGradient>
<linearGradient id="paint13_linear" x1="96.2692" y1="74.9962" x2="96.2692" y2="88.9571" gradientUnits="userSpaceOnUse">
<stop stop-color="#F2A25D"/>
<stop offset="1" stop-color="#CC441F"/>
</linearGradient>
<linearGradient id="paint14_linear" x1="71.0371" y1="54.2786" x2="86.145" y2="54.2786" gradientUnits="userSpaceOnUse">
<stop stop-color="#E3703B"/>
<stop offset="1" stop-color="#EFAF67"/>
</linearGradient>
<linearGradient id="paint15_linear" x1="58.6399" y1="69.5515" x2="36.2724" y2="60.1979" gradientUnits="userSpaceOnUse">
<stop stop-color="#BFE8FE"/>
<stop offset="0.5134" stop-color="#1D8AE4"/>
<stop offset="0.9994" stop-color="#0052A3"/>
</linearGradient>
<linearGradient id="paint16_linear" x1="38.0371" y1="54.2786" x2="53.145" y2="54.2786" gradientUnits="userSpaceOnUse">
<stop stop-color="#E3703B"/>
<stop offset="1" stop-color="#EFAF67"/>
</linearGradient>
</defs>
</svg>
