<svg xmlns="http://www.w3.org/2000/svg" xmlns:xlink="http://www.w3.org/1999/xlink" width="99" height="99"><defs><linearGradient id="b" x1="37.498%" x2="72.884%" y1="19.056%" y2="104.912%"><stop offset="0%" stop-color="#CFEFFF"/><stop offset="53.931%" stop-color="#3FB0FC"/><stop offset="100%" stop-color="#2196F3"/></linearGradient><circle id="a" cx="49.5" cy="49.5" r="49.5"/><linearGradient id="d" x1="27.129%" x2="53.802%" y1="34.815%" y2="93.748%"><stop offset="0%" stop-color="#3FB0FC"/><stop offset="100%" stop-color="#2095F2"/></linearGradient><linearGradient id="e" x1="65.82%" x2="43.822%" y1="80.79%" y2="24.098%"><stop offset="0%" stop-color="#0052A3"/><stop offset="100%" stop-color="#2196F3"/></linearGradient><linearGradient id="f" x1="18.414%" x2="66.404%" y1="-26.326%" y2="89.663%"><stop offset=".836%" stop-color="#EFAF67"/><stop offset="70.21%" stop-color="#FF7238"/><stop offset="100%" stop-color="#CC441F"/></linearGradient><linearGradient id="g" x1="-9.402%" x2="88.734%" y1="-78.989%" y2="99.877%"><stop offset=".185%" stop-color="#FFF"/><stop offset="100%" stop-color="#FFF" stop-opacity="0"/></linearGradient></defs><g fill="none" fill-rule="evenodd"><mask id="c" fill="#fff"><use xlink:href="#a"/></mask><use fill="url(#b)" fill-rule="nonzero" xlink:href="#a"/><g fill-rule="nonzero" mask="url(#c)"><path fill="url(#d)" d="M1 27.527l.873-9.727 14.362 4.086 8.636-8.56L36.515 0s8.248 11.672 8.83 12.159c.582.486 1.553-2.335 2.135-2.238 2.814.876 10.188 5.837 10.577 5.837.776-.195 7.374-3.016 8.636-4.28 1.455-1.46 6.695 3.21 6.695 3.21s9.218-1.46 10.383-3.405c.485-.875 4.366-4.863 4.366-4.863s7.181 7.295 8.734 8.365c1.455 1.07 3.105 1.653 3.59 1.264.485-.389 8.539 8.56 8.539 8.56s-1.747 16.828-3.396 16.341c-1.65-.486-43.084-6.42-43.084-6.42S4.784 43.285 4.59 42.993C4.396 42.603 1 27.527 1 27.527z" transform="translate(-4 34)"/><path fill="url(#e)" d="M.043 20.29l7.585-4.827s5.446 4.635 10.6 3.38c2.723-.676 11.183-7.82 12.155-7.241 2.237 1.448 6.516 1.544 6.516 1.544l5.835-4.248c.291 0 3.89-.482 6.71-2.896 3.014-2.607 6.126-6.275 7.39-5.986 1.361.29 7.877 5.214 9.044 6.565 1.167 1.352 10.113-4.248 10.794-3.765 1.847 1.255 7.001 5.02 10.6 7.82.583.386 3.306-4.441 3.89-3.958 3.111 2.606 13.224 13.13 13.71 12.937 1.265-.386-7.293 11.778-7.682 12.84 0 0 0 .097-.097.097L46.721 34s-43.663-.29-43.566-.483C3.447 33.324.238 21.353.043 20.291c-.097.096 0 0 0 0z" transform="translate(-1 47)"/><path fill="url(#f)" d="M0 37h107v32H0z" transform="translate(-4 34)"/><path fill="url(#g)" d="M100 50.409L65.938 37H18l73.557 23 2.523-1.664S55.846 38.762 55.943 38.762c2.814.783 42.893 13.017 42.893 13.017l1.164-1.37z" transform="translate(-4 34)"/><path fill="#EFAF67" d="M8.189 71L66 101 3.51 99.721 0 71.492z"/><path fill="#F9C662" d="M20 37c-3.9 0-7 2.967-7 6.699C13 47.43 20 57 20 57s7-9.57 7-13.301C27 39.967 23.9 37 20 37zm.5 9c-1.413 0-2.5-.87-2.5-2s1.087-2 2.5-2 2.5.87 2.5 2-1.087 2-2.5 2z"/><path fill="#FFF" d="M75 55c-4.936 0-9 4.08-9 9.032C66 68.986 75 82 75 82s8.998-13.014 8.998-17.968C84.095 58.982 80.031 55 75 55zm-.003 13C73.3 68 72 66.6 72 65c0-1.7 1.399-3 2.997-3 1.7 0 2.998 1.4 2.998 3 .1 1.6-1.299 3-2.998 3z"/><path fill="#3FB0FC" d="M70 35c-1.594 0-3 1.326-3 3.032C67 39.737 70 44 70 44s3-4.263 3-5.968C73 36.326 71.594 35 70 35zm0 4c-.6 0-1-.5-1-1s.5-1 1-1 1 .5 1 1-.4 1-1 1z"/></g><path fill="#FFF" fill-rule="nonzero" d="M98 29.901c-1.636-2.37-4.235-3.852-7.22-3.852-1.54 0-2.983.395-4.33 1.186C85.004 24.173 82.02 22 78.46 22c-3.177 0-5.872 1.679-7.508 4.247-.963-.691-2.118-1.087-3.273-1.087-2.791 0-5.198 2.075-5.679 4.84h36v-.099z" opacity=".8"/><path fill="#FFF" fill-rule="nonzero" d="M70 22c-1.175-1.826-3.33-3.043-5.876-3.043-.882 0-1.665.173-2.449.434C60.5 18.521 59.031 18 57.366 18c-2.938 0-5.387 1.652-6.366 4h19z"/><path fill="#FFF" fill-rule="nonzero" d="M30 27c0-2.716-2.1-5.141-5.248-5.82-2.672-.582-5.344.29-6.966 2.037-.859-.388-1.908-.68-2.958-.68-2.29 0-4.294 1.068-5.439 2.62-.858-.194-1.813-.097-2.671.194-.764.388-1.432.97-1.718 1.552h25V27z" opacity=".8"/></g></svg>