<svg xmlns="http://www.w3.org/2000/svg" xmlns:xlink="http://www.w3.org/1999/xlink" width="99" height="99"><defs><linearGradient id="b" x1="30.271%" x2="73.559%" y1="9.046%" y2="99.216%"><stop offset="0%" stop-color="#BFE8FE"/><stop offset="6.512%" stop-color="#B9E5FD"/><stop offset="14.88%" stop-color="#A9DBFB"/><stop offset="24.25%" stop-color="#8FCCF6"/><stop offset="34.36%" stop-color="#6AB7F0"/><stop offset="44.94%" stop-color="#3B9CE9"/><stop offset="51.06%" stop-color="#1D8AE4"/><stop offset="100%" stop-color="#033A82"/></linearGradient><circle id="a" cx="49.5" cy="50.5" r="49.5"/><linearGradient id="c" x1="3.014%" x2="51.792%" y1="-25.486%" y2="100%"><stop offset="0%" stop-color="#FFF"/><stop offset="100%" stop-color="#FFF" stop-opacity=".003"/><stop offset="100%" stop-color="#FFF" stop-opacity="0"/></linearGradient><linearGradient id="e" x1="67.907%" x2="21.15%" y1="68.171%" y2="20.949%"><stop offset="0%" stop-color="#0052A3"/><stop offset="64.39%" stop-color="#1780DA" stop-opacity=".356"/><stop offset="100%" stop-color="#2196F3" stop-opacity="0"/></linearGradient><linearGradient id="f" x1="24%" x2="99.496%" y1="34.519%" y2="79.425%"><stop offset=".68%" stop-color="#EFAF67"/><stop offset="70.21%" stop-color="#FF7238"/><stop offset="100%" stop-color="#CC441F"/></linearGradient><linearGradient id="g" x1="-16.274%" x2="69.381%" y1="-3.136%" y2="66.291%"><stop offset="0%" stop-color="#FFF"/><stop offset="100%" stop-color="#FFF" stop-opacity="0"/></linearGradient><linearGradient id="h" x1="152.482%" x2=".837%" y1="75.214%" y2="37.771%"><stop offset=".836%" stop-color="#EFAF67"/><stop offset="48.11%" stop-color="#FF7238"/><stop offset="60.85%" stop-color="#EF6430"/><stop offset="85.3%" stop-color="#D54D24"/><stop offset="100%" stop-color="#CC441F"/></linearGradient><linearGradient id="i" x1="34.819%" x2="249.694%" y1="43.699%" y2="244.441%"><stop offset="0%" stop-color="#0052A3"/><stop offset="64.39%" stop-color="#1780DA" stop-opacity=".356"/><stop offset="100%" stop-color="#2196F3" stop-opacity="0"/></linearGradient><linearGradient id="j" x1="1.851%" x2="216.819%" y1="16.376%" y2="185.212%"><stop offset="0%" stop-color="#0052A3"/><stop offset="64.39%" stop-color="#1780DA" stop-opacity=".356"/><stop offset="100%" stop-color="#2196F3" stop-opacity="0"/></linearGradient></defs><g fill="none" fill-rule="evenodd" transform="translate(0 -1)"><mask id="d" fill="#fff"><use xlink:href="#a"/></mask><use fill="url(#b)" fill-rule="nonzero" xlink:href="#a"/><path fill="url(#c)" fill-rule="nonzero" d="M96.853 57.078c.27.068.135.547-.134.41-1.548-.41.202.821-1.884.342-23.752-6.158-80.61-21.623-80.744-21.555-3.97 1.643 75.293 27.783 75.293 27.783L86.894 67-3 41.818V23l99.853 34.078z" mask="url(#d)" opacity=".5"/><path fill="#2196F3" fill-rule="nonzero" mask="url(#d)" d="M25-4h64v107H25z"/><path fill="url(#e)" fill-rule="nonzero" mask="url(#d)" d="M25-4h64v107H25z"/><path fill="url(#f)" fill-rule="nonzero" mask="url(#d)" d="M103 102.901L40 103V-3.901L103-4z"/><path fill="#EFAF67" fill-rule="nonzero" mask="url(#d)" d="M40-4h6v107h-6z"/><path fill="url(#g)" fill-rule="nonzero" mask="url(#d)" d="M40-4h6v107h-6z"/><path fill="url(#h)" fill-rule="nonzero" d="M74.306 63.908V43.234L65 40.514 66.642 28l35.582 10.337s4.708 45.81 1.861 47.66C103.757 86.215 65 74.245 65 74.245l1.642-12.513 7.664 2.176z" mask="url(#d)"/><path fill="#FFF" fill-opacity=".8" fill-rule="nonzero" d="M97.998 101c.117-9.434-6.046-17.936-15.58-20.381-7.907-1.98-16.047.931-20.93 6.755-2.675-1.398-5.698-2.33-8.837-2.33-6.86-.116-12.907 3.494-16.28 8.852-2.674-.7-5.464-.583-8.139.698-2.441 1.165-4.186 3.145-5.232 5.474l74.998.932z" mask="url(#d)" opacity=".9"/><path fill="url(#i)" fill-rule="nonzero" mask="url(#d)" d="M40 49.6L25 44v5.6L40 54z"/><path fill="url(#j)" fill-rule="nonzero" mask="url(#d)" d="M40 58.424L25 53v6.624L40 65z"/><path fill="#FFD892" fill-rule="nonzero" d="M69 34.614c0-2.623-.79-4.903-2.032-5.93V28h-1.694C63.468 28.114 62 31.079 62 34.5s1.468 6.386 3.274 6.5h1.694v-.684C68.21 39.404 69 37.236 69 34.614zm0 33c0-2.623-.79-4.903-2.032-5.93V61h-1.694C63.468 61.114 62 64.079 62 67.5s1.468 6.386 3.274 6.5h1.694v-.456C68.21 72.518 69 70.237 69 67.614z" mask="url(#d)"/><ellipse cx="66.5" cy="34.5" fill="#F4844D" fill-rule="nonzero" mask="url(#d)" rx="3.5" ry="6.5"/><ellipse cx="66.5" cy="67.5" fill="#F4844D" fill-rule="nonzero" mask="url(#d)" rx="3.5" ry="6.5"/><path fill="#EFAF67" fill-rule="nonzero" d="M71.786 35.433c-.857-.22-3-.882-5.25-1.433 0 0-.536.22-.536.992 0 .992.429 1.102.429 1.102 1.714.441 3.214.882 3.964 1.102 1.714.441 2.571.882 2.571 2.315v27.336c0 1.322-.321 2.094-2.357 1.653-1.607-.44-2.357-.551-4.071-.992 0 0-.536.22-.536 1.102 0 .992.536 1.102.536 1.102 2.25.662 3.321.882 4.821 1.213 2.464.44 3.643-1.102 3.643-3.527V38.96c-.107-1.874-1.179-2.976-3.214-3.527z" mask="url(#d)"/><path fill="#FFF" fill-rule="nonzero" d="M76 18c-1.92-2.7-4.994-4.371-8.451-4.371-1.793 0-3.458.514-4.994 1.285C60.89 11.443 57.433 9 53.207 9a10.276 10.276 0 0 0-8.707 4.757c-1.152-.771-2.433-1.286-3.841-1.286-3.33 0-6.019 2.315-6.659 5.529h42z" mask="url(#d)" opacity=".598"/></g></svg>